<svg xmlns="http://www.w3.org/2000/svg" viewBox="0 0 400 1536" role="img" aria-labelledby="evidence-relationship-presentation-title evidence-relationship-presentation-desc">
  <title id="evidence-relationship-presentation-title">ACE Evidence Relationship Map</title>
  <desc id="evidence-relationship-presentation-desc">A faithful map of governance, evidence provenance, evidence review and proposed relationship records.</desc>
  <defs>
    <marker id="presentation-arrow" markerWidth="10" markerHeight="8" refX="9" refY="4" orient="auto">
      <polygon points="0 0, 10 4, 0 8" fill="#52606d"/>
    </marker>
    <marker id="presentation-arrow-accent" markerWidth="10" markerHeight="8" refX="9" refY="4" orient="auto">
      <polygon points="0 0, 10 4, 0 8" fill="#0b5cab"/>
    </marker>
  </defs>
  <rect width="400" height="1536" fill="#f7f9fb"/>
  <rect x="8" y="8" width="384" height="700" rx="8" fill="#f7f9fb" stroke="#d9e2ec" stroke-width="2"/><text data-controlled-label="Governance Chain" x="24" y="36" fill="#1f2933" font-family="Arial, Helvetica, sans-serif" font-size="16" font-weight="700">Governance Chain</text><rect x="8" y="724" width="384" height="360" rx="8" fill="#f7f9fb" stroke="#d9e2ec" stroke-width="2"/><text data-controlled-label="Evidence Provenance" x="24" y="752" fill="#1f2933" font-family="Arial, Helvetica, sans-serif" font-size="16" font-weight="700">Evidence Provenance</text><rect x="8" y="1100" width="384" height="420" rx="8" fill="#f7f9fb" stroke="#d9e2ec" stroke-width="2"/><text data-controlled-label="Evidence Review And Links" x="24" y="1128" fill="#1f2933" font-family="Arial, Helvetica, sans-serif" font-size="16" font-weight="700">Evidence Review And Links</text><path data-controlled-edge="true" d="M 200 120 L 200 140" fill="none" stroke="#52606d" stroke-width="2" marker-end="url(#presentation-arrow)"/><path data-controlled-edge="true" d="M 200 204 L 200 224" fill="none" stroke="#52606d" stroke-width="2" marker-end="url(#presentation-arrow)"/><path data-controlled-edge="true" d="M 200 288 L 200 308" fill="none" stroke="#52606d" stroke-width="2" marker-end="url(#presentation-arrow)"/><path data-controlled-edge="true" d="M 200 380 L 200 408" fill="none" stroke="#52606d" stroke-width="2" marker-end="url(#presentation-arrow)"/><path data-controlled-edge="true" d="M 104 504 L 104 496 Q 104 488 112 488 L 168 488 Q 176 488 176 480 L 176 472" fill="none" stroke="#52606d" stroke-width="2" marker-end="url(#presentation-arrow)"/><path data-controlled-edge="true" d="M 104 608 L 104 576" fill="none" stroke="#52606d" stroke-width="2" marker-end="url(#presentation-arrow)"/><path data-controlled-edge="true" d="M 224 472 L 224 480 Q 224 488 232 488 L 288 488 Q 296 488 296 496 L 296 504" fill="none" stroke="#52606d" stroke-width="2" marker-end="url(#presentation-arrow)"/><path data-controlled-edge="true" d="M 200 836 L 200 864" fill="none" stroke="#52606d" stroke-width="2" marker-end="url(#presentation-arrow)"/><path data-controlled-edge="true" d="M 200 928 L 200 956" fill="none" stroke="#52606d" stroke-width="2" marker-end="url(#presentation-arrow)"/><path data-controlled-edge="true" d="M 180 1020 L 180 1064 Q 180 1072 172 1072 L 112 1072 Q 104 1072 104 1080 L 104 1156" fill="none" stroke="#52606d" stroke-width="2" marker-end="url(#presentation-arrow)"/><path data-controlled-edge="true" d="M 220 1020 L 220 1064 Q 220 1072 228 1072 L 288 1072 Q 296 1072 296 1080 L 296 1156" fill="none" stroke="#52606d" stroke-width="2" marker-end="url(#presentation-arrow)"/><path data-controlled-edge="true" d="M 188 1192 L 384 1192 Q 392 1192 392 1184 L 392 548 Q 392 540 384 540 L 380 540" fill="none" stroke="#52606d" stroke-width="2" marker-end="url(#presentation-arrow)"/><path data-controlled-edge="true" d="M 316 576 L 360 576 Q 368 576 368 584 L 368 1128 Q 368 1136 360 1136 L 324 1136 Q 316 1136 316 1144 L 316 1156" fill="none" stroke="#52606d" stroke-width="2" marker-end="url(#presentation-arrow)"/><path data-controlled-edge="true" d="M 276 1228 L 276 1244 Q 276 1252 268 1252 L 112 1252 Q 104 1252 104 1260 L 104 1280" fill="none" stroke="#52606d" stroke-width="2" marker-end="url(#presentation-arrow)"/><path data-controlled-edge="true" d="M 316 1228 L 316 1280" fill="none" stroke="#52606d" stroke-width="2" marker-end="url(#presentation-arrow)"/><path data-controlled-edge="true" d="M 336 1228 L 360 1228 Q 368 1228 368 1236 L 368 1372 Q 368 1380 360 1380 L 208 1380 Q 200 1380 200 1388 L 200 1404" fill="none" stroke="#52606d" stroke-width="2" marker-end="url(#presentation-arrow)"/><rect x="48" y="468" width="112" height="20" rx="4" fill="#f7f9fb"/><text data-controlled-edge-label="accountable for" x="104" y="483" text-anchor="middle" fill="#52606d" font-family="Arial, Helvetica, sans-serif" font-size="12">accountable for</text><rect x="36" y="584" width="136" height="20" rx="4" fill="#f7f9fb"/><text data-controlled-edge-label="identifies holder of" x="104" y="599" text-anchor="middle" fill="#52606d" font-family="Arial, Helvetica, sans-serif" font-size="12">identifies holder of</text><rect x="250" y="468" width="92" height="20" rx="4" fill="#f7f9fb"/><text data-controlled-edge-label="examined by" x="296" y="483" text-anchor="middle" fill="#52606d" font-family="Arial, Helvetica, sans-serif" font-size="12">examined by</text><rect x="164" y="840" width="72" height="20" rx="4" fill="#f7f9fb"/><text data-controlled-edge-label="supplies" x="200" y="855" text-anchor="middle" fill="#52606d" font-family="Arial, Helvetica, sans-serif" font-size="12">supplies</text><rect x="116" y="56" width="168" height="64" rx="8" fill="#ffffff" stroke="#52606d" stroke-width="2"/><text data-controlled-label="Engagement" text-anchor="middle" fill="#1f2933" font-family="Arial, Helvetica, sans-serif" font-size="18" font-weight="600"><tspan x="200" y="94">Engagement</tspan></text><rect x="116" y="140" width="168" height="64" rx="8" fill="#ffffff" stroke="#52606d" stroke-width="2"/><text data-controlled-label="Binding Obligation" text-anchor="middle" fill="#1f2933" font-family="Arial, Helvetica, sans-serif" font-size="18" font-weight="600"><tspan x="200" y="167">Binding</tspan><tspan x="200" y="189">Obligation</tspan></text><rect x="116" y="224" width="168" height="64" rx="8" fill="#ffffff" stroke="#52606d" stroke-width="2"/><text data-controlled-label="Risk" text-anchor="middle" fill="#1f2933" font-family="Arial, Helvetica, sans-serif" font-size="18" font-weight="600"><tspan x="200" y="262">Risk</tspan></text><rect x="116" y="308" width="168" height="72" rx="8" fill="#e8f1fb" stroke="#0b5cab" stroke-width="2"/><text data-controlled-label="Risk-Control Relationship" text-anchor="middle" fill="#1f2933" font-family="Arial, Helvetica, sans-serif" font-size="18" font-weight="600"><tspan x="200" y="339">Risk-Control</tspan><tspan x="200" y="361">Relationship</tspan></text><rect x="116" y="408" width="168" height="64" rx="8" fill="#ffffff" stroke="#52606d" stroke-width="2"/><text data-controlled-label="Control" text-anchor="middle" fill="#1f2933" font-family="Arial, Helvetica, sans-serif" font-size="18" font-weight="600"><tspan x="200" y="446">Control</tspan></text><rect x="20" y="504" width="168" height="72" rx="8" fill="#ffffff" stroke="#52606d" stroke-width="2"/><text data-controlled-label="Accountable Role" text-anchor="middle" fill="#1f2933" font-family="Arial, Helvetica, sans-serif" font-size="18" font-weight="600"><tspan x="104" y="535">Accountable</tspan><tspan x="104" y="557">Role</tspan></text><rect x="212" y="504" width="168" height="72" rx="8" fill="#ffffff" stroke="#52606d" stroke-width="2"/><text data-controlled-label="Audit Question" text-anchor="middle" fill="#1f2933" font-family="Arial, Helvetica, sans-serif" font-size="18" font-weight="600"><tspan x="296" y="546">Audit Question</tspan></text><rect x="20" y="608" width="168" height="64" rx="8" fill="#ffffff" stroke="#52606d" stroke-width="2"/><text data-controlled-label="Role Assignment" text-anchor="middle" fill="#1f2933" font-family="Arial, Helvetica, sans-serif" font-size="18" font-weight="600"><tspan x="104" y="646">Role Assignment</tspan></text><rect x="116" y="772" width="168" height="64" rx="8" fill="#ffffff" stroke="#52606d" stroke-width="2"/><text data-controlled-label="Evidence Provider" text-anchor="middle" fill="#1f2933" font-family="Arial, Helvetica, sans-serif" font-size="18" font-weight="600"><tspan x="200" y="810">Evidence Provider</tspan></text><rect x="116" y="864" width="168" height="64" rx="8" fill="#ffffff" stroke="#52606d" stroke-width="2"/><text data-controlled-label="Source" text-anchor="middle" fill="#1f2933" font-family="Arial, Helvetica, sans-serif" font-size="18" font-weight="600"><tspan x="200" y="902">Source</tspan></text><rect x="116" y="956" width="168" height="64" rx="8" fill="#ffffff" stroke="#52606d" stroke-width="2"/><text data-controlled-label="Evidence Item" text-anchor="middle" fill="#1f2933" font-family="Arial, Helvetica, sans-serif" font-size="18" font-weight="600"><tspan x="200" y="994">Evidence Item</tspan></text><rect x="20" y="1036" width="360" height="32" rx="8" fill="#ffffff" stroke="#d9e2ec" stroke-width="2" stroke-dasharray="6 6"/><text data-controlled-label="Evidence Provider is not Accountable Role" text-anchor="middle" fill="#1f2933" font-family="Arial, Helvetica, sans-serif" font-size="14" font-weight="600"><tspan x="200" y="1058">Evidence Provider is not Accountable Role</tspan></text><rect x="20" y="1156" width="168" height="72" rx="8" fill="#ffffff" stroke="#52606d" stroke-width="2"/><text data-controlled-label="Evidence Relationship" text-anchor="middle" fill="#1f2933" font-family="Arial, Helvetica, sans-serif" font-size="18" font-weight="600"><tspan x="104" y="1187">Evidence</tspan><tspan x="104" y="1209">Relationship</tspan></text><rect x="212" y="1156" width="168" height="72" rx="8" fill="#e8f1fb" stroke="#0b5cab" stroke-width="2"/><text data-controlled-label="Evidence Review" text-anchor="middle" fill="#1f2933" font-family="Arial, Helvetica, sans-serif" font-size="18" font-weight="600"><tspan x="296" y="1198">Evidence Review</tspan></text><rect x="20" y="1280" width="168" height="64" rx="8" fill="#ffffff" stroke="#52606d" stroke-width="2"/><text data-controlled-label="Evidence Relevance" text-anchor="middle" fill="#1f2933" font-family="Arial, Helvetica, sans-serif" font-size="18" font-weight="600"><tspan x="104" y="1307">Evidence</tspan><tspan x="104" y="1329">Relevance</tspan></text><rect x="212" y="1280" width="168" height="64" rx="8" fill="#ffffff" stroke="#52606d" stroke-width="2"/><text data-controlled-label="Evidence Gap" text-anchor="middle" fill="#1f2933" font-family="Arial, Helvetica, sans-serif" font-size="18" font-weight="600"><tspan x="296" y="1318">Evidence Gap</tspan></text><rect x="116" y="1404" width="168" height="72" rx="8" fill="#ffffff" stroke="#52606d" stroke-width="2"/><text data-controlled-label="Proposed Relationship" text-anchor="middle" fill="#1f2933" font-family="Arial, Helvetica, sans-serif" font-size="18" font-weight="600"><tspan x="200" y="1435">Proposed</tspan><tspan x="200" y="1457">Relationship</tspan></text>
</svg>
